<?xml version="1.0" standalone="no"?>
<!DOCTYPE svg PUBLIC "-//W3C//DTD SVG 20010904//EN"
 "http://www.w3.org/TR/2001/REC-SVG-20010904/DTD/svg10.dtd">
<svg version="1.0" xmlns="http://www.w3.org/2000/svg"
 width="1024.000000pt" height="1533.000000pt" viewBox="0 0 1024.000000 1533.000000"
 preserveAspectRatio="xMidYMid meet">
<metadata>
Created by potrace 1.16, written by Peter Selinger 2001-2019
</metadata>
<g transform="translate(0.000000,1533.000000) scale(0.100000,-0.100000)"
fill="#000000" stroke="none">
<path d="M0 7665 l0 -7665 5120 0 5120 0 0 7665 0 7665 -5120 0 -5120 0 0
-7665z m8960 4600 l0 -2505 -3840 0 -3840 0 0 2505 0 2505 3840 0 3840 0 0
-2505z m-134 -2789 c25 -24 34 -43 34 -66 0 -23 -9 -41 -34 -66 -24 -24 -43
-34 -66 -34 -23 0 -41 10 -66 34 -24 25 -34 43 -34 66 0 23 10 42 34 66 25 25
43 34 66 34 23 0 42 -9 66 -34z m-5746 -2451 l0 -895 -895 0 -895 0 0 895 0
895 895 0 895 0 0 -895z m1960 -25 l0 -920 -900 0 -900 0 0 920 0 920 900 0
900 0 0 -920z m1960 400 l0 -520 -900 0 -900 0 0 520 0 520 900 0 900 0 0
-520z m1959 253 c0 -161 -4 -259 -9 -247 -23 56 18 54 -890 54 -908 0 -867 2
-890 -54 -5 -12 -9 86 -9 247 l-1 267 900 0 900 0 -1 -267z m-1419 -623 l0
-260 -65 0 -65 0 0 260 0 260 65 0 65 0 0 -260z m229 208 c5 -29 13 -84 17
-123 7 -66 8 -68 16 -35 4 19 12 73 16 120 l7 85 93 3 92 3 0 -266 0 -266 -57
3 -58 3 -5 155 -5 155 -12 -90 c-7 -49 -15 -118 -19 -152 l-6 -63 -43 0 c-50
0 -49 -2 -66 142 -21 188 -26 192 -28 21 l-1 -163 -60 0 -60 0 0 260 0 260 84
0 85 0 10 -52z m771 -29 c0 -73 2 -80 18 -74 36 15 53 17 96 11 59 -9 66 -29
66 -180 0 -130 -10 -180 -40 -196 -29 -15 -78 -12 -107 7 -19 13 -28 14 -31 5
-2 -8 -25 -12 -63 -12 l-59 0 0 260 0 260 60 0 60 0 0 -81z m-255 60 c75 -19
80 -35 80 -239 0 -187 -8 -230 -49 -252 -11 -7 -74 -14 -138 -16 l-118 -4 0
261 0 261 91 0 c49 0 110 -5 134 -11z m-1083 -663 c20 -14 107 -16 858 -16
908 0 867 -2 890 54 5 12 9 -86 9 -246 l1 -268 -900 0 -900 0 1 268 c0 160 4
258 9 246 5 -12 19 -29 32 -38z m-202 -966 l0 -670 -900 0 -900 0 0 670 0 670
900 0 900 0 0 -670z m-3920 -760 l0 -670 -895 0 -895 0 0 670 0 670 895 0 895
0 0 -670z m5880 -230 l0 -900 -900 0 -900 0 1 308 c1 277 2 303 15 263 17 -56
47 -88 102 -112 41 -18 80 -19 770 -18 531 0 735 4 758 12 46 18 79 48 103 95
20 39 21 55 21 332 0 267 -2 294 -19 328 -25 47 -67 86 -110 101 -24 8 -244
11 -757 11 -689 0 -724 -1 -767 -19 -49 -21 -88 -66 -104 -121 -8 -26 -11 46
-12 293 l-1 327 900 0 900 0 0 -900z m-3920 360 l0 -490 -900 0 -900 0 0 490
0 490 900 0 900 0 0 -490z m2520 -365 l0 -245 -60 0 -60 0 0 245 0 245 60 0
60 0 0 -245z m214 229 c3 -9 6 -31 6 -49 0 -47 22 -135 32 -129 4 3 8 31 8 62
0 31 3 74 6 95 l7 37 83 0 84 0 0 -245 0 -245 -50 0 -50 0 -1 123 -1 122 -14
-60 c-9 -33 -18 -87 -22 -120 l-7 -60 -40 -3 -41 -3 -17 88 c-9 48 -19 104
-20 123 -2 19 -5 -20 -5 -87 l-2 -123 -55 0 -55 0 0 245 0 245 74 0 c58 0 75
-3 80 -16z m547 -14 l30 -30 -3 -189 c-4 -239 3 -230 -170 -231 l-118 0 0 240
0 240 116 0 c115 0 116 0 145 -30z m189 -27 c0 -54 1 -55 18 -40 26 23 94 22
116 -2 14 -16 16 -41 14 -197 l-3 -179 -77 0 c-42 0 -80 -3 -84 -8 -4 -4 -31
-7 -61 -7 l-53 0 0 245 0 245 65 0 65 0 0 -57z m-1511 -715 c0 -203 -3 -265
-11 -243 -14 40 -56 83 -97 101 -50 21 -1532 21 -1582 0 -41 -18 -83 -61 -97
-101 -8 -22 -11 40 -11 243 l-1 272 900 0 900 0 -1 -272z m-1960 -550 c0 -205
-3 -366 -6 -358 -3 8 -17 27 -31 43 -33 35 -98 37 -148 6 l-34 -21 0 81 0 81
-90 0 -90 0 -1 -125 c0 -69 0 -152 0 -185 0 -33 0 -139 0 -235 l1 -175 70 0
c63 0 70 2 70 20 0 25 27 26 90 4 74 -26 144 -6 163 46 3 8 6 -126 6 -297 l1
-313 -900 0 -900 0 0 270 0 270 90 0 90 0 0 360 0 360 -90 0 -90 0 0 270 0
270 900 0 900 0 -1 -372z m1815 348 c18 -7 43 -27 55 -44 20 -29 21 -39 21
-342 0 -256 -3 -316 -15 -340 -33 -64 15 -60 -815 -60 -830 0 -782 -4 -815 60
-12 24 -15 84 -15 340 0 303 1 313 21 342 42 59 19 57 807 58 594 0 729 -2
756 -14z m-3774 -1171 l0 -895 -895 0 -895 0 0 895 0 895 895 0 895 0 0 -895z
m2162 378 c12 -13 39 -32 60 -43 38 -20 56 -20 798 -20 742 0 760 0 798 20 51
27 78 57 90 100 7 25 10 -53 11 -277 l1 -313 -900 0 -900 0 1 313 c1 224 4
302 11 277 5 -19 19 -45 30 -57z m-384 -136 c2 -202 2 -207 -18 -207 -19 0
-20 6 -20 211 0 195 1 210 18 207 15 -3 17 -22 20 -211z m4102 -427 l0 -610
-900 0 -900 0 0 610 0 610 900 0 900 0 0 -610z"/>
<path d="M2800 13455 c0 -11 -11 -15 -40 -15 -29 0 -40 -4 -40 -15 0 -8 -7
-15 -15 -15 -8 0 -15 -4 -15 -10 0 -5 -7 -10 -15 -10 -10 0 -15 -10 -15 -30 0
-20 -5 -30 -15 -30 -9 0 -15 -9 -15 -25 0 -14 -4 -25 -10 -25 -7 0 -10 -345
-10 -1015 0 -670 3 -1015 10 -1015 6 0 10 -11 10 -25 0 -16 6 -25 15 -25 10 0
15 -10 15 -30 0 -20 5 -30 15 -30 8 0 15 -4 15 -10 0 -5 7 -10 15 -10 8 0 15
-7 15 -15 0 -11 11 -15 40 -15 29 0 40 -4 40 -15 0 -13 264 -15 2320 -15 2056
0 2320 2 2320 15 0 11 11 15 40 15 29 0 40 4 40 15 0 8 7 15 15 15 8 0 15 5
15 10 0 6 7 10 15 10 10 0 15 10 15 30 0 20 5 30 15 30 9 0 15 9 15 25 0 14 5
25 10 25 7 0 10 345 10 1015 0 670 -3 1015 -10 1015 -5 0 -10 11 -10 25 0 16
-6 25 -15 25 -10 0 -15 10 -15 30 0 20 -5 30 -15 30 -8 0 -15 5 -15 10 0 6 -7
10 -15 10 -8 0 -15 7 -15 15 0 11 -11 15 -40 15 -29 0 -40 4 -40 15 0 13 -264
15 -2320 15 -2056 0 -2320 -2 -2320 -15z m880 -1190 l0 -735 -180 0 c-153 0
-180 2 -180 15 0 8 -4 15 -10 15 -7 0 -10 247 -10 720 l0 720 190 0 190 0 0
-735z m610 695 c0 -29 4 -40 15 -40 12 0 15 -19 15 -115 0 -96 3 -115 15 -115
12 0 15 -16 15 -80 0 -47 4 -80 10 -80 6 0 10 -35 10 -85 0 -69 3 -85 15 -85
12 0 15 18 15 100 0 82 3 100 15 100 12 0 15 17 15 95 0 78 3 95 15 95 12 0
15 17 15 95 0 57 4 95 10 95 6 0 10 14 10 30 l0 30 250 0 250 0 0 -735 0 -735
-165 0 -165 0 0 445 c0 389 -2 445 -15 445 -12 0 -15 -19 -15 -110 0 -67 -4
-110 -10 -110 -6 0 -10 -45 -10 -115 0 -96 -3 -115 -15 -115 -12 0 -15 -17
-15 -95 0 -78 -3 -95 -15 -95 -12 0 -15 -17 -15 -95 0 -78 -3 -95 -15 -95 -10
0 -15 -10 -15 -30 l0 -30 -110 0 -110 0 0 40 c0 29 -4 40 -15 40 -12 0 -15 16
-15 85 0 50 -4 85 -10 85 -6 0 -10 43 -10 110 0 91 -3 110 -15 110 -12 0 -15
16 -15 85 0 69 -3 85 -15 85 -12 0 -15 17 -15 95 0 78 -3 95 -15 95 -13 0 -15
-53 -15 -415 l0 -415 -165 0 -165 0 0 735 0 735 235 0 235 0 0 -40z m1300 25
c0 -12 16 -15 85 -15 69 0 85 -3 85 -15 0 -11 11 -15 40 -15 22 0 40 -4 40
-10 0 -5 7 -10 15 -10 8 0 15 -7 15 -15 0 -8 5 -15 10 -15 6 0 10 -7 10 -15 0
-8 7 -15 15 -15 8 0 15 -7 15 -15 0 -8 7 -15 15 -15 12 0 15 -13 15 -55 0 -42
3 -55 15 -55 13 0 15 -59 15 -470 0 -411 -2 -470 -15 -470 -12 0 -15 -13 -15
-55 0 -42 -3 -55 -15 -55 -10 0 -15 -10 -15 -30 0 -20 -5 -30 -15 -30 -8 0
-15 -4 -15 -10 0 -5 -11 -10 -25 -10 -16 0 -25 -6 -25 -15 0 -12 -13 -15 -55
-15 -42 0 -55 -3 -55 -15 0 -13 -41 -15 -305 -15 l-305 0 0 735 0 735 235 0
c202 0 235 -2 235 -15z m880 -205 c0 -189 2 -220 15 -220 8 0 15 5 15 10 0 6
14 10 30 10 20 0 30 5 30 15 0 12 13 15 55 15 42 0 55 3 55 15 0 11 11 15 40
15 29 0 40 -4 40 -15 0 -11 11 -15 40 -15 29 0 40 -4 40 -15 0 -10 10 -15 30
-15 17 0 30 -4 30 -10 0 -5 7 -10 15 -10 8 0 15 -7 15 -15 0 -8 5 -15 10 -15
6 0 10 -25 10 -55 0 -42 3 -55 15 -55 13 0 15 -42 15 -320 0 -278 -2 -320 -15
-320 -12 0 -15 -14 -15 -70 0 -40 -4 -70 -10 -70 -5 0 -10 -7 -10 -15 0 -8 -7
-15 -15 -15 -8 0 -15 -4 -15 -10 0 -5 -7 -10 -15 -10 -8 0 -15 -7 -15 -15 0
-8 -7 -15 -15 -15 -8 0 -15 -7 -15 -15 0 -13 -21 -15 -125 -15 -104 0 -125 2
-125 15 0 9 -9 15 -25 15 -16 0 -25 6 -25 15 0 8 -7 15 -15 15 -8 0 -15 5 -15
10 0 6 -5 10 -11 10 -19 0 -39 -28 -39 -54 l0 -26 -170 0 c-144 0 -170 2 -170
15 0 8 -4 15 -10 15 -5 0 -10 18 -10 40 0 22 5 40 10 40 6 0 10 30 10 70 0 40
-4 70 -10 70 -5 0 -10 25 -10 55 0 30 5 55 10 55 6 0 10 30 10 70 0 40 -4 70
-10 70 -5 0 -10 25 -10 55 0 30 5 55 10 55 6 0 10 30 10 70 0 40 -4 70 -10 70
-5 0 -10 25 -10 55 0 30 5 55 10 55 6 0 10 30 10 70 0 40 -4 70 -10 70 -5 0
-10 25 -10 55 0 30 5 55 10 55 6 0 10 30 10 70 0 40 -4 70 -10 70 -5 0 -10 25
-10 55 0 30 5 55 10 55 6 0 10 11 10 25 0 14 -4 25 -10 25 -5 0 -10 7 -10 15
0 8 5 15 10 15 6 0 10 7 10 15 0 13 27 15 180 15 l180 0 0 -220z"/>
<path d="M5480 12265 l0 -485 40 0 c29 0 40 4 40 15 0 8 7 15 15 15 8 0 15 7
15 15 0 8 7 15 15 15 13 0 15 54 15 425 0 371 -2 425 -15 425 -8 0 -15 7 -15
15 0 8 -7 15 -15 15 -8 0 -15 7 -15 15 0 11 -11 15 -40 15 l-40 0 0 -485z"/>
<path d="M6500 12405 c0 -8 -7 -15 -15 -15 -13 0 -15 -42 -15 -320 0 -278 2
-320 15 -320 8 0 15 -4 15 -10 0 -15 49 -12 66 4 8 8 14 26 14 40 0 16 6 26
15 26 13 0 15 39 15 290 0 251 -2 290 -15 290 -8 0 -15 7 -15 15 0 11 -11 15
-40 15 -29 0 -40 -4 -40 -15z"/>
<path d="M1620 7030 l0 -230 60 0 60 0 0 230 0 230 -60 0 -60 0 0 -230z"/>
<path d="M1780 7030 l0 -230 50 0 50 0 1 143 c1 117 3 132 9 82 5 -34 15 -95
24 -138 9 -42 16 -79 16 -82 0 -3 15 -5 34 -5 38 0 46 12 46 71 0 52 20 180
31 199 5 9 9 -42 9 -127 l0 -143 45 0 45 0 0 230 0 230 -74 0 -74 0 -11 -63
c-6 -35 -11 -83 -11 -107 0 -65 -7 -46 -26 68 l-17 102 -74 0 -73 0 0 -230z"/>
<path d="M2180 7029 l0 -232 121 5 c73 3 125 10 132 17 8 8 13 70 15 195 4
220 3 222 -98 236 -36 5 -89 10 -117 10 l-53 0 0 -231z"/>
<path d="M2480 7030 l0 -230 55 0 c30 0 55 4 55 10 0 5 16 4 38 -3 46 -16 75
-12 98 15 17 18 19 38 19 170 0 147 0 149 -25 168 -31 24 -73 25 -105 4 l-25
-16 0 56 0 56 -55 0 -55 0 0 -230z"/>
<path d="M3393 7437 c-42 -12 -78 -38 -118 -88 -19 -23 -20 -39 -20 -349 0
-310 1 -326 20 -349 45 -53 80 -80 114 -87 58 -12 1417 -13 1486 -1 50 9 65
17 101 53 23 24 44 57 48 75 8 41 8 577 0 618 -11 52 -80 114 -142 129 -73 17
-1427 15 -1489 -1z m257 -422 l0 -245 -60 0 -60 0 0 245 0 245 60 0 60 0 0
-245z m225 155 c21 -97 29 -98 39 -5 12 100 7 95 97 95 l79 0 0 -245 0 -245
-50 0 -50 0 -1 113 -1 112 -19 -80 c-10 -44 -19 -95 -19 -112 0 -32 -1 -33
-45 -33 -44 0 -45 1 -46 33 0 17 -8 68 -19 112 l-18 80 -1 -112 -1 -113 -55 0
-55 0 0 245 0 245 73 0 73 0 19 -90z m554 60 c19 -23 20 -37 20 -210 0 -164
-2 -187 -18 -207 -21 -26 -103 -43 -203 -43 l-68 0 0 246 0 246 124 -4 c118
-3 125 -4 145 -28z m181 -21 c0 -45 2 -50 18 -44 31 14 77 17 105 6 l27 -11 0
-183 0 -184 -26 -12 c-21 -9 -39 -9 -82 1 -43 9 -57 9 -60 0 -2 -7 -24 -12
-55 -12 l-52 0 3 245 3 245 59 0 60 0 0 -51z"/>
<path d="M4270 7020 l0 -161 23 3 c22 3 22 5 22 158 0 153 0 155 -22 158 l-23
3 0 -161z"/>
<path d="M5674 7639 c-16 -5 -41 -20 -55 -35 -23 -25 -24 -31 -27 -196 -2 -94
-1 -182 2 -194 4 -13 18 -35 32 -49 l25 -25 449 0 449 0 25 25 c14 14 28 36
32 49 3 12 4 100 2 194 -3 165 -4 171 -27 196 -14 14 -41 30 -60 36 -45 12
-804 12 -847 -1z m136 -239 l0 -140 -30 0 -30 0 0 140 0 140 30 0 30 0 0 -140z
m135 88 c11 -81 24 -103 25 -43 1 87 6 95 59 95 l46 0 -1 -128 c-2 -163 1
-152 -34 -152 -30 0 -30 1 -31 58 l-1 57 -8 -47 c-10 -57 -16 -68 -39 -68 -13
0 -20 13 -28 48 l-10 47 -2 -47 c-1 -48 -1 -48 -36 -48 l-35 0 0 140 0 140 44
0 44 0 7 -52z m306 35 c29 -17 29 -18 29 -117 0 -89 -2 -102 -22 -123 -18 -19
-32 -23 -85 -23 l-63 0 0 140 0 140 56 0 c35 0 67 -6 85 -17z m119 -13 c0 -28
2 -29 32 -23 47 9 58 -13 58 -116 0 -47 -4 -91 -8 -98 -4 -7 -37 -11 -84 -11
l-78 -1 0 140 0 139 40 0 c38 0 40 -2 40 -30z"/>
<path d="M8190 7025 c0 -96 4 -175 8 -175 5 0 16 8 25 18 14 15 17 42 17 156
0 137 -8 176 -35 176 -13 0 -15 -28 -15 -175z"/>
<path d="M5310 5640 l0 -440 790 0 790 0 0 440 0 440 -790 0 -790 0 0 -440z
m1548 398 c17 -17 17 -779 0 -796 -9 -9 -191 -12 -757 -12 -679 0 -746 1 -763
17 -17 15 -18 41 -18 391 0 335 2 377 17 394 15 17 52 18 763 18 567 0 749 -3
758 -12z"/>
<path d="M5350 5640 l0 -390 748 2 747 3 0 385 0 385 -747 3 -748 2 0 -390z
m290 0 l0 -230 -65 0 -65 0 0 230 0 230 65 0 65 0 0 -230z m198 195 c6 -74 14
-115 22 -115 5 0 14 34 21 75 l13 75 73 0 73 0 0 -230 0 -230 -50 0 -50 0 -2
148 c-1 120 -2 135 -8 82 -28 -252 -22 -230 -70 -230 -37 0 -40 2 -40 26 0 26
-10 93 -29 199 -7 41 -9 26 -10 -87 l-1 -138 -55 0 -55 0 0 230 0 231 83 -3
82 -3 3 -30z m511 9 c19 -25 21 -40 21 -193 0 -91 -3 -176 -6 -189 -11 -39
-53 -52 -169 -52 l-105 0 0 230 0 230 119 0 c117 0 120 -1 140 -26z m181 -45
l0 -71 25 16 c37 24 73 20 106 -13 29 -29 29 -31 29 -141 0 -107 -7 -138 -36
-167 -16 -16 -86 -17 -102 -1 -9 9 -15 9 -24 0 -7 -7 -36 -12 -65 -12 l-53 0
0 230 0 230 60 0 60 0 0 -71z"/>
<path d="M1412 5288 c-17 -17 -17 -799 0 -816 9 -9 192 -12 764 -12 414 0 759
3 768 6 14 5 16 51 16 414 0 363 -2 409 -16 414 -9 3 -354 6 -768 6 -572 0
-755 -3 -764 -12z m1528 -408 l0 -400 -751 -2 c-464 -2 -754 1 -760 6 -10 11
-13 779 -2 789 3 4 345 7 760 7 l753 0 0 -400z"/>
<path d="M1590 4885 l0 -235 60 0 60 0 0 235 0 235 -60 0 -60 0 0 -235z"/>
<path d="M1750 4885 l0 -235 50 0 50 0 0 143 c1 159 12 167 31 21 6 -49 14
-106 16 -126 5 -37 7 -38 44 -38 47 0 41 -21 69 230 6 53 7 38 8 -82 l2 -148
55 0 55 0 0 235 0 236 -82 -3 -83 -3 -6 -71 c-10 -104 -25 -124 -33 -43 -14
128 -6 119 -97 119 l-79 0 0 -235z"/>
<path d="M2170 4886 l0 -236 120 0 c169 0 160 -13 160 233 0 243 9 231 -161
235 l-119 4 0 -236z"/>
<path d="M2498 5103 c-1 -10 -2 -116 -2 -235 l-1 -218 57 0 c31 0 59 4 63 9 3
6 17 4 33 -5 33 -17 56 -18 85 -2 42 22 46 38 47 169 0 123 -1 127 -26 153
-31 30 -72 34 -109 10 l-25 -16 0 76 0 76 -60 0 c-50 0 -60 -3 -62 -17z"/>
<path d="M3452 5410 c-47 -11 -98 -49 -121 -91 -20 -35 -21 -53 -21 -317 0
-299 2 -315 50 -362 62 -62 34 -60 779 -60 742 0 721 -2 780 58 50 50 52 66
49 378 -3 284 -3 290 -26 319 -12 16 -39 40 -60 54 l-37 26 -680 2 c-374 1
-695 -2 -713 -7z m228 -395 l0 -235 -55 0 -55 0 0 235 0 235 55 0 55 0 0 -235z
m199 218 c5 -10 12 -47 16 -83 11 -96 21 -116 28 -55 4 28 9 74 13 103 l6 53
76 -3 77 -3 3 -232 2 -233 -50 0 -50 0 -1 118 -1 117 -13 -61 c-7 -34 -16 -87
-20 -118 l-7 -56 -38 0 c-37 0 -38 1 -45 43 -3 23 -12 71 -18 107 l-12 65 -3
-107 -3 -108 -54 0 -55 0 0 228 c0 126 3 232 7 235 3 4 35 7 69 7 50 0 65 -4
73 -17z m503 -3 c43 -20 50 -52 46 -229 -4 -209 -1 -205 -163 -209 l-115 -4 0
233 0 232 103 -5 c56 -3 114 -11 129 -18z m198 -31 c0 -45 2 -50 18 -44 50 20
80 17 106 -8 26 -26 26 -28 26 -175 0 -184 -3 -189 -105 -178 -42 4 -65 3 -65
-4 0 -5 -22 -10 -50 -10 l-50 0 0 228 c0 126 3 232 7 235 3 4 30 7 60 7 l53 0
0 -51z"/>
<path d="M4260 5015 c0 -139 2 -156 16 -151 9 3 20 6 25 6 6 0 8 60 7 148 -3
144 -3 147 -25 150 l-23 3 0 -156z"/>
<path d="M3500 3040 l0 -360 80 0 80 0 1 188 0 187 19 -75 c11 -41 19 -85 20
-97 0 -12 9 -62 21 -112 l21 -91 48 0 c48 0 49 1 59 38 6 20 11 51 11 67 0 17
9 67 20 113 11 46 20 99 20 118 0 19 5 34 11 34 9 0 11 -51 8 -182 l-4 -183
73 -3 72 -3 0 361 0 361 -117 -3 -118 -3 -3 -45 c-1 -25 -9 -97 -19 -160 l-16
-114 -23 114 c-12 63 -25 136 -29 163 l-6 47 -115 0 -114 0 0 -360z"/>
<path d="M4160 3041 l0 -361 98 0 c110 0 209 13 251 31 15 7 38 27 50 44 20
30 21 42 21 285 0 245 -1 255 -22 286 -39 56 -75 67 -245 72 l-153 4 0 -361z
m225 5 c0 -200 -2 -230 -16 -239 -9 -6 -24 -7 -33 -4 -14 6 -16 33 -16 242 l0
236 33 -3 32 -3 0 -229z"/>
<path d="M5500 3540 l0 -240 60 0 60 0 0 240 0 240 -60 0 -60 0 0 -240z"/>
<path d="M5682 3543 l3 -238 48 -3 47 -3 1 133 c0 161 17 129 44 -84 6 -46 7
-48 40 -48 l33 0 21 93 c11 50 24 110 28 132 6 29 9 3 11 -92 l3 -133 44 0 45
0 0 240 0 240 -74 0 -74 0 -12 -72 c-6 -40 -15 -89 -19 -108 -9 -35 -9 -35
-10 -5 -1 16 -9 65 -18 107 l-16 78 -74 0 -73 0 2 -237z"/>
<path d="M6430 3540 l0 -240 46 0 c32 0 51 5 59 16 9 13 16 14 33 5 26 -14 87
-14 113 -1 18 10 19 23 19 180 0 163 -1 169 -22 184 -26 18 -65 20 -102 6 -26
-9 -26 -9 -26 40 l0 50 -60 0 -60 0 0 -240z"/>
<path d="M6110 3535 l0 -235 106 0 c115 0 157 14 168 54 3 12 6 101 6 199 0
227 7 217 -160 217 l-120 0 0 -235z"/>
<path d="M1627 2973 c-4 -3 -7 -107 -7 -230 l0 -223 60 0 60 0 0 230 0 230
-53 0 c-30 0 -57 -3 -60 -7z"/>
<path d="M1780 2750 l0 -230 50 0 49 0 3 128 3 127 18 -110 c25 -150 23 -145
62 -145 38 0 45 11 46 78 0 46 22 189 30 196 2 3 4 -57 4 -132 l0 -137 48 -3
47 -3 0 230 0 231 -75 0 -74 0 -6 -32 c-3 -18 -10 -64 -14 -103 -8 -77 -10
-73 -31 63 l-12 72 -74 0 -74 0 0 -230z"/>
<path d="M2180 2749 l0 -232 121 5 c73 3 125 10 132 17 8 8 13 70 15 195 4
220 3 222 -98 236 -36 5 -89 10 -117 10 l-53 0 0 -231z"/>
<path d="M2480 2750 l0 -230 55 0 c30 0 55 4 55 10 0 5 16 4 38 -3 49 -17 77
-11 102 20 18 23 20 40 20 165 0 137 0 139 -26 163 -28 26 -87 34 -99 15 -3
-5 -13 -10 -21 -10 -10 0 -14 13 -14 50 l0 50 -55 0 -55 0 0 -230z"/>
</g>
</svg>
