<?xml version="1.0" standalone="no"?>
<!DOCTYPE svg PUBLIC "-//W3C//DTD SVG 20010904//EN"
 "http://www.w3.org/TR/2001/REC-SVG-20010904/DTD/svg10.dtd">
<svg version="1.0" xmlns="http://www.w3.org/2000/svg"
 width="512.000000pt" height="512.000000pt" viewBox="0 0 512.000000 512.000000"
 preserveAspectRatio="xMidYMid meet">

<g transform="translate(0.000000,512.000000) scale(0.100000,-0.100000)"
fill="#000000" stroke="none">
<path d="M1300 2565 c0 -877 3 -1595 8 -1595 4 0 287 207 629 460 l623 459
623 -459 c342 -253 625 -460 630 -460 4 0 7 718 7 1595 l0 1595 -1260 0 -1260
0 0 -1595z m2160 175 c0 -583 -2 -1060 -5 -1060 -3 0 -203 145 -443 322 -240
177 -444 322 -452 322 -8 0 -212 -145 -452 -322 -240 -177 -440 -322 -443
-322 -3 0 -5 477 -5 1060 l0 1060 900 0 900 0 0 -1060z"/>
</g>
</svg>
