<?xml version="1.0" standalone="no"?>
<!DOCTYPE svg PUBLIC "-//W3C//DTD SVG 20010904//EN"
 "http://www.w3.org/TR/2001/REC-SVG-20010904/DTD/svg10.dtd">
<svg version="1.0" xmlns="http://www.w3.org/2000/svg"
 width="1200.000000pt" height="1200.000000pt" viewBox="0 0 1200.000000 1200.000000"
 preserveAspectRatio="xMidYMid meet">

<g transform="translate(0.000000,1200.000000) scale(0.100000,-0.100000)"
fill="#000000" stroke="none">
<path d="M5501 8752 c-272 -680 -497 -1241 -501 -1245 -4 -5 -676 -120 -1494
-256 -817 -136 -1488 -250 -1491 -253 -3 -3 442 -341 990 -752 547 -410 995
-747 995 -749 0 -1 -113 -675 -250 -1497 -137 -822 -248 -1495 -247 -1496 1
-1 562 334 1247 745 l1245 747 3 752 2 752 1000 0 1000 0 996 747 c788 591
992 749 978 755 -11 4 -685 118 -1499 253 -813 135 -1481 247 -1482 249 -35
34 -559 1350 -934 2343 -30 79 -56 143 -59 143 -3 0 -227 -557 -499 -1238z"/>
<path d="M6500 4750 l0 -250 1250 0 1250 0 0 250 0 250 -1250 0 -1250 0 0
-250z"/>
<path d="M6500 3750 l0 -250 1250 0 1250 0 0 250 0 250 -1250 0 -1250 0 0
-250z"/>
<path d="M6500 2750 l0 -250 1250 0 1250 0 0 250 0 250 -1250 0 -1250 0 0
-250z"/>
</g>
</svg>
